# xmcd CD database file
#
# Track frame offsets:
#	150
#	16022
#	37235
#	59896
#	82284
#	102271
#	122575
#	143612
#
# Disc length: 2182 seconds
#
# Revision: 0
# Processed by: cddbd v1.4PL0 Copyright (c) Steve Scherf et al.
# Submitted via: CDex 1.40Release
#
DISCID=6e088408
DTITLE=Mimmo Dany - L'Inprevedibile
DYEAR=1900
DGENRE=Country
TTITLE0=Voglio abballà cu tte'
TTITLE1=So' cuntento
TTITLE2=E' fernuto
TTITLE3=Pe na femmena
TTITLE4='A mosca
TTITLE5=Novanta per sessanta per novanta
TTITLE6=Nun e' stato overo
TTITLE7=Finalmente sposi
EXTD=ID3G: 2
EXTT0=
EXTT1=
EXTT2=
EXTT3=
EXTT4=
EXTT5=
EXTT6=
EXTT7=
PLAYORDER=
